<?xml version="1.0" encoding="UTF-8"?>
<svg width="150px" height="150px" viewBox="0 0 150 150" version="1.1" xmlns="http://www.w3.org/2000/svg" xmlns:xlink="http://www.w3.org/1999/xlink">
    <title>icon_底纹备份@2x</title>
    <defs>
        <rect id="path-1" x="0" y="0" width="150" height="150"></rect>
        <linearGradient x1="80.3655231%" y1="50%" x2="52.7189057%" y2="10.1949295%" id="linearGradient-3">
            <stop stop-color="#FF8400" stop-opacity="0.4" offset="0%"></stop>
            <stop stop-color="#FF5900" offset="100%"></stop>
        </linearGradient>
        <linearGradient x1="80.3655231%" y1="50%" x2="52.7189057%" y2="9.67201773%" id="linearGradient-4">
            <stop stop-color="#FF8400" stop-opacity="0.4" offset="0%"></stop>
            <stop stop-color="#FF5900" offset="100%"></stop>
        </linearGradient>
    </defs>
    <g id="页面-1" stroke="none" stroke-width="1" fill="none" fill-rule="evenodd">
        <g id="画板" transform="translate(-163.000000, -81.000000)">
            <g id="icon_底纹备份" transform="translate(163.000000, 81.000000)">
                <mask id="mask-2" fill="white">
                    <use xlink:href="#path-1"></use>
                </mask>
                <g id="Mask"></g>
                <g id="花纹" opacity="0.600000024" mask="url(#mask-2)" fill-rule="nonzero">
                    <g transform="translate(41.474664, 140.814410) rotate(-330.000000) translate(-41.474664, -140.814410) translate(-30.027425, 79.314410)" id="路径" opacity="0.1">
                        <path d="M65.416169,1.70789613 C56.669077,6.2664988 48.6865583,12.0901043 41.6907523,18.9746353 L41.2560893,19.405 L40.1219805,19.1701009 C33.1557207,17.7563215 26.0896227,16.787078 18.9572767,16.2696437 C13.9395645,15.9041337 9.25925793,18.8622711 7.46605398,23.5722133 L7.11369128,24.5106879 C2.58746474,36.7301847 0.187631161,49.6997666 0.0704683731,62.9911294 L0.0670893229,63.906 L0.0436349533,64.5006972 C-0.747555213,88.5673359 9.23437784,109.432815 28.8709782,119.041364 L29.3440893,119.268 L29.2396912,119.214277 C33.7692179,121.604451 38.8098985,122.910942 44.0275975,122.995603 L44.5352102,123 L98.4343046,123 L98.7128357,123 L99.3040085,122.9882 C104.223181,122.856861 108.957257,121.649525 113.251262,119.479752 L113.627089,119.285 L114.133714,119.041536 C133.769923,109.432736 143.75173,88.567186 142.960543,64.5006927 L142.937089,63.906 L142.938218,64.0141694 C142.938218,50.0241465 140.410995,36.3776164 135.538488,23.5731684 C133.744921,18.8622711 129.064614,15.9041337 124.045138,16.269772 L122.518138,16.3875389 C115.905548,16.9278107 109.351022,17.8572601 102.882674,19.1699184 L101.746089,19.405 L101.3135,18.9740887 C94.0757879,11.8522182 85.7829416,5.86587041 76.6804671,1.24083741 C73.4245861,-0.41361247 69.5796398,-0.41361247 66.3237588,1.24083741 L65.416169,1.70789613 Z M70.9124262,12.3753595 L71.5020893,12.071 L71.244482,11.9389712 C80.3107654,16.5456152 88.4645261,22.690014 95.3944041,30.0870842 C96.8577321,31.6490655 99.0423219,32.3132535 101.127434,31.830116 L102.505294,31.5174994 C109.402191,29.9858784 116.412214,28.9263825 123.497204,28.3475451 L124.484089,28.271 L124.323433,27.8419536 C128.561039,38.977949 130.814553,50.8290376 130.93327,62.9992544 L130.939533,64.1397957 L130.943478,64.2653669 C131.780959,84.2515383 123.958603,100.866613 108.859655,108.262543 L108.281831,108.541245 L108.165062,108.601225 C105.249028,110.139628 102.00543,110.968226 98.6305087,111 L44.5825102,111 L44.1722386,110.996579 C41.0737527,110.946106 38.0474024,110.20132 35.2960259,108.834767 L34.7229784,108.541122 L34.6046218,108.483562 C19.3585414,101.274685 11.3752937,84.7875251 12.0379711,64.869973 L12.0646455,64.1397957 L12.0709089,62.9992544 C12.1863277,51.1670985 14.3196006,39.6365646 18.332543,28.7707203 L18.5190893,28.271 L18.0872238,28.2380607 C26.1299796,28.8215433 34.0776184,30.0230145 41.8773227,31.8303748 C43.9625909,32.3135766 46.1473533,31.649274 47.6106938,30.0870761 C54.3228673,22.9214553 62.1846471,16.9310745 70.9124262,12.3753595 Z" fill="url(#linearGradient-3)"></path>
                        <path d="M66.1926993,26.1381535 C60.6653909,29.0342938 55.5848062,32.666758 51.0704426,36.9256704 L50.5020893,37.468 L50.1335616,37.3933688 C45.6170417,36.5043892 41.0399763,35.8902599 36.4222631,35.5552561 C32.1993668,35.2476435 28.258467,37.7384468 26.7476178,41.7067699 L26.4299072,42.5566453 C23.4072316,50.7892374 21.79299,59.5153834 21.6887324,68.4542408 L21.6840893,69.245 L21.6692279,69.6476886 C21.120906,86.4132687 28.1349713,101.071731 42.0034156,107.858909 L42.3460893,108.024 L42.1990992,107.948604 C45.4951514,109.68789 49.1640101,110.638819 52.9586484,110.70039 L53.3137373,110.703398 L89.4570664,110.703398 L89.9855034,110.692245 C93.5018188,110.5844 96.8832905,109.722382 99.9568315,108.184725 L100.285089,108.016 L100.611805,107.859008 C114.479968,101.071655 121.493938,86.4131575 120.945619,69.6476852 L120.930089,69.245 L120.931509,69.3796974 C120.931509,59.8090427 119.202068,50.4703844 115.867592,41.707725 C114.35638,37.7384468 110.41548,35.2476435 106.19082,35.5553843 L104.932851,35.6536378 C100.742987,36.0042016 96.5872896,36.5851769 92.4815843,37.3932569 L92.1130893,37.468 L91.5442947,36.9252463 C86.8244059,32.4728324 81.4860888,28.7051825 75.6656974,25.7477996 C72.9257411,24.3555127 69.6891372,24.3555127 66.9491809,25.7477996 L66.1926993,26.1381535 Z M71.3070893,37.009 L71.6189424,37.1765061 C76.9003302,40.0491854 81.6712724,43.7474702 85.7760789,48.1290108 C87.2394069,49.6909921 89.4239967,50.3551801 91.5091089,49.8720426 L92.6874116,49.6064489 C96.620741,48.7445879 100.610059,48.1173665 104.638933,47.7284935 L105.269089,47.671 L105.483229,48.2895643 C107.665664,54.7463084 108.835759,61.5444143 108.925874,68.5083539 L108.932824,69.5053237 L108.93677,69.6308949 C109.46292,82.1872932 104.637436,92.4778628 95.4126344,97.043124 L94.932949,97.2754979 L94.8161796,97.3354779 C93.1526619,98.2130946 91.3037067,98.6854223 89.3747394,98.7035845 L53.3610373,98.7035845 L53.1032895,98.7013661 C51.387695,98.6733356 49.6972216,98.2649421 48.1531276,97.5147599 L47.6823863,97.2754493 L47.5640298,97.2178896 C38.2249626,92.8020539 33.2729746,82.6159565 33.6602834,70.1189528 L33.6820224,69.5053237 L33.6885474,68.5418357 C33.7753407,61.5662029 34.9456952,54.7566293 37.13188,48.288876 L37.3450893,47.671 L37.9748896,47.7284208 C42.4077812,48.1562698 46.7916556,48.8724596 51.1060983,49.8722094 C53.1913665,50.3554111 55.3761289,49.6911085 56.8394694,48.1289107 C60.9435248,43.7476019 65.7143243,40.049312 70.995884,37.1765339 L71.3070893,37.009 Z" fill="url(#linearGradient-4)"></path>
                    </g>
                </g>
            </g>
        </g>
    </g>
</svg>